<?xml version="1.0" standalone="no"?>
<!DOCTYPE svg PUBLIC "-//W3C//DTD SVG 20010904//EN"
 "http://www.w3.org/TR/2001/REC-SVG-20010904/DTD/svg10.dtd">
<svg version="1.0" xmlns="http://www.w3.org/2000/svg"
 width="512.000000pt" height="512.000000pt" viewBox="0 0 512.000000 512.000000"
 preserveAspectRatio="xMidYMid meet">

<g transform="translate(0.000000,512.000000) scale(0.100000,-0.100000)"
fill="#000000" stroke="none">
<path d="M2430 4459 c-75 -15 -206 -84 -265 -140 -131 -123 -167 -319 -96
-510 20 -53 70 -119 90 -119 7 0 11 24 11 58 1 65 20 157 41 190 14 23 29 29
29 12 0 -26 19 -5 39 45 26 62 63 96 130 120 40 14 111 21 111 11 0 -3 -13
-26 -30 -53 -30 -48 -44 -113 -25 -119 6 -2 23 24 39 57 26 56 92 136 103 126
2 -3 -5 -23 -16 -46 -42 -82 -25 -75 47 19 44 57 57 26 22 -55 -22 -51 -24
-65 -12 -65 5 0 23 32 42 70 19 39 37 70 42 70 4 0 5 -33 2 -74 -6 -65 -4 -79
19 -130 14 -31 28 -56 31 -56 2 0 2 47 -1 104 -4 69 -2 105 5 110 7 4 13 -8
17 -31 12 -65 35 -153 55 -203 11 -27 22 -80 25 -117 12 -132 21 -140 81 -68
20 25 44 45 54 45 40 0 98 277 76 364 -7 28 -71 112 -145 189 -31 32 -48 55
-38 51 10 -3 17 -1 17 5 0 31 -97 95 -170 113 -37 9 -258 39 -275 37 -5 -1
-30 -5 -55 -10z"/>
<path d="M2996 3480 c-74 -23 -96 -73 -96 -222 -1 -96 -3 -110 -14 -95 -7 9
-15 17 -18 17 -3 0 -7 -33 -10 -73 -6 -90 -33 -144 -124 -247 -35 -40 -66 -81
-69 -91 -3 -10 -59 -53 -123 -95 -64 -43 -126 -87 -137 -98 -94 -95 -136 -127
-150 -116 -15 13 -48 142 -76 305 -24 137 -24 156 0 186 10 13 21 49 25 79 7
55 7 55 -13 35 -42 -43 -195 -285 -246 -390 -103 -213 -126 -268 -115 -279 5
-5 10 -18 10 -27 0 -23 19 -34 33 -20 16 16 25 14 43 -14 11 -18 13 -27 5 -37
-6 -7 -20 -25 -32 -40 -36 -48 -133 -50 -183 -3 -33 31 -36 31 -36 1 0 -34 43
-64 102 -72 44 -6 49 -9 43 -28 -22 -76 -45 -234 -45 -308 0 -48 -11 -165 -24
-260 -13 -95 -27 -222 -30 -283 -8 -128 -35 -674 -36 -693 0 -10 45 -12 207
-10 l207 3 12 60 c6 33 26 114 43 180 18 66 46 185 63 265 17 80 56 224 88
320 32 96 66 204 75 240 9 36 33 106 52 155 54 137 75 216 61 232 -8 10 -7 18
5 31 8 9 23 37 33 62 10 25 28 59 41 76 19 26 23 43 23 106 0 106 10 168 26
168 10 0 14 -17 14 -67 l1 -68 29 80 c64 176 82 222 107 264 23 39 28 43 56
37 16 -3 36 -11 43 -17 21 -17 25 -80 10 -149 -8 -36 -12 -68 -9 -72 2 -5 15
-8 28 -8 37 0 49 34 51 146 2 80 -2 121 -22 199 -19 73 -24 111 -19 147 4 26
10 48 14 48 4 0 18 -11 31 -25 13 -14 27 -25 32 -25 4 0 8 78 8 174 0 205 6
229 52 224 l33 -3 0 -232 0 -232 35 -16 c32 -16 35 -16 47 1 20 28 25 92 21
295 -3 167 -5 198 -21 221 -36 52 -102 76 -161 58z m-133 -630 c10 -39 1 -50
-35 -43 -32 6 -36 27 -12 61 21 30 36 24 47 -18z"/>
<path d="M3326 3480 c-37 -12 -66 -38 -82 -77 -20 -47 -20 -440 0 -488 19 -45
69 -75 124 -75 53 0 93 22 118 64 17 28 19 53 19 256 0 259 -5 277 -78 311
-46 20 -58 21 -101 9z m82 -309 c2 -149 -1 -218 -9 -227 -17 -20 -57 -17 -69
5 -14 27 -13 396 1 422 8 15 19 19 42 17 l32 -3 3 -214z"/>
<path d="M3570 3400 l0 -80 39 0 c39 0 40 1 43 38 3 37 3 37 48 37 39 0 45 -2
42 -20 -2 -11 -37 -134 -78 -272 -41 -139 -74 -255 -74 -258 0 -3 22 -5 48 -5
l48 0 77 273 c46 165 77 292 77 320 l0 47 -135 0 -135 0 0 -80z"/>
<path d="M2803 2114 c-36 -27 -44 -68 -17 -78 21 -8 70 19 90 49 35 54 -16 74
-73 29z"/>
</g>
</svg>
